<?xml version="1.0" standalone="no"?>
<!DOCTYPE svg PUBLIC "-//W3C//DTD SVG 20010904//EN"
 "http://www.w3.org/TR/2001/REC-SVG-20010904/DTD/svg10.dtd">
<svg version="1.0" xmlns="http://www.w3.org/2000/svg"
 width="593.000000pt" height="593.000000pt" viewBox="0 0 593.000000 593.000000"
 preserveAspectRatio="xMidYMid meet">
<metadata>
Created by potrace 1.11, written by Peter Selinger 2001-2013
</metadata>
<g transform="translate(0.000000,593.000000) scale(0.100000,-0.100000)"
fill="#000000" stroke="none">
<path d="M10 3030 l0 -890 1315 0 1315 0 0 890 0 890 -1315 0 -1315 0 0 -890z
m2580 -5 l0 -845 -1270 0 -1270 0 0 845 0 845 1270 0 1270 0 0 -845z"/>
<path d="M1310 3663 c-10 -28 -17 -33 -46 -33 -41 0 -42 -4 -8 -33 22 -20 24
-25 14 -51 -14 -38 -7 -43 26 -17 l26 21 31 -22 30 -21 -7 36 c-6 33 -3 40 21
62 l28 24 -37 1 c-33 0 -40 4 -52 33 l-14 32 -12 -32z"/>
<path d="M1024 3587 c-8 -28 -15 -33 -49 -37 l-40 -5 31 -19 c29 -17 31 -22
22 -48 -13 -37 -6 -44 25 -23 24 15 27 15 52 -1 32 -21 39 -15 25 20 -9 24 -6
30 18 51 l27 24 -37 1 c-32 0 -37 3 -43 30 -9 42 -21 45 -31 7z"/>
<path d="M1591 3588 c-11 -35 -16 -38 -49 -38 l-37 -1 29 -23 c24 -20 27 -28
21 -55 -8 -36 -4 -37 31 -15 23 15 26 15 43 0 29 -27 42 -21 29 15 -10 28 -8
33 18 55 l29 23 -36 1 c-33 0 -38 4 -51 38 l-14 37 -13 -37z"/>
<path d="M821 3387 c-6 -16 -11 -33 -11 -38 0 -5 -17 -9 -37 -9 l-38 -1 28
-23 c25 -20 27 -25 17 -51 -14 -36 -9 -39 28 -18 29 17 31 17 51 -1 27 -24 36
-15 23 22 -9 25 -7 30 19 48 l29 19 -37 5 c-31 4 -38 10 -48 40 l-13 35 -11
-28z"/>
<path d="M1801 3387 c-6 -16 -11 -33 -11 -38 0 -5 -17 -9 -37 -9 l-38 0 29
-23 c27 -22 28 -26 18 -55 -12 -36 -7 -39 27 -16 22 16 26 16 54 -1 l30 -18
-7 36 c-6 30 -3 38 21 56 l28 20 -36 1 c-32 0 -38 4 -51 38 l-15 37 -12 -28z"/>
<path d="M741 3098 c-11 -35 -16 -38 -49 -38 l-37 -1 28 -23 c25 -20 28 -27
21 -61 l-7 -38 31 23 c30 22 33 22 50 7 30 -28 43 -22 30 14 -10 28 -8 33 18
55 l29 23 -36 1 c-33 0 -38 4 -51 38 l-14 37 -13 -37z"/>
<path d="M1874 3095 c-6 -33 -8 -35 -48 -35 l-41 0 32 -26 c28 -22 31 -28 22
-51 -13 -34 -5 -39 26 -19 23 15 27 15 50 0 32 -21 39 -15 25 21 -9 23 -7 30
7 41 10 7 21 14 26 14 4 0 7 5 7 10 0 6 -15 10 -34 10 -30 0 -35 4 -41 30 -10
43 -23 46 -31 5z"/>
<path d="M815 2810 c-6 -26 -11 -30 -41 -30 -41 0 -43 -7 -8 -35 23 -18 24
-23 14 -49 -14 -38 -7 -43 26 -17 l26 21 26 -21 c29 -23 37 -15 23 22 -7 20
-4 28 23 51 l31 27 -38 1 c-33 0 -39 4 -48 30 -6 17 -15 30 -19 30 -5 0 -11
-13 -15 -30z"/>
<path d="M1800 2813 c-10 -28 -17 -33 -46 -33 -41 0 -42 -4 -8 -33 22 -20 24
-25 14 -51 -14 -38 -7 -43 27 -18 l28 20 28 -20 29 -21 -6 40 c-6 35 -4 40 18
53 36 19 32 30 -9 30 -30 0 -37 5 -49 33 l-14 32 -12 -32z"/>
<path d="M1021 2600 c-9 -26 -15 -30 -48 -30 l-38 -1 32 -27 c24 -21 29 -31
23 -47 -17 -40 -11 -47 20 -25 l30 21 27 -20 c32 -26 39 -21 25 18 -10 27 -8
33 14 50 32 25 30 31 -10 31 -30 0 -35 4 -41 30 -4 17 -10 30 -15 30 -4 0 -13
-13 -19 -30z"/>
<path d="M1595 2615 c-3 -8 -7 -22 -10 -30 -3 -10 -18 -15 -42 -15 l-38 -1 28
-23 c25 -20 28 -27 21 -61 l-7 -39 28 22 28 22 33 -21 c38 -23 38 -23 23 19
-10 29 -8 34 18 56 l28 25 -37 1 c-31 0 -37 4 -47 30 -11 33 -19 38 -26 15z"/>
<path d="M1310 2534 c-6 -14 -10 -30 -10 -35 0 -5 -17 -9 -37 -9 l-38 -1 28
-23 c25 -20 27 -25 17 -51 -14 -37 -8 -41 29 -19 29 17 31 17 51 -1 26 -23 35
-14 22 23 -9 26 -7 31 22 48 l31 19 -39 5 c-35 4 -41 9 -48 38 -10 39 -15 40
-28 6z"/>
<path d="M2950 3240 l0 -290 40 0 40 0 0 93 c1 85 2 94 28 125 l27 33 110
-126 109 -125 53 0 c29 0 53 3 53 8 0 4 -58 72 -129 152 l-128 145 121 128
c67 71 123 133 124 138 2 5 -19 9 -46 9 l-50 0 -134 -144 -133 -144 -3 144 -3
144 -39 0 -40 0 0 -290z"/>
<path d="M4930 3490 l0 -40 45 0 45 0 0 40 0 40 -45 0 -45 0 0 -40z"/>
<path d="M4650 3450 c0 -57 -1 -60 -25 -60 -22 0 -25 -4 -25 -35 0 -30 3 -35
24 -35 l25 0 3 -149 c3 -134 5 -153 24 -178 30 -40 81 -57 149 -48 l55 6 0 37
0 37 -62 0 c-82 0 -88 10 -88 173 l0 122 75 0 75 0 0 35 0 35 -75 0 -75 0 0
60 0 60 -40 0 -40 0 0 -60z"/>
<path d="M3888 3386 c-62 -23 -84 -42 -112 -97 -48 -96 -32 -227 34 -290 63
-61 195 -76 293 -36 34 15 37 19 37 58 0 46 8 45 -94 9 -95 -34 -171 -9 -202
66 -27 65 -30 64 142 64 l156 0 -4 70 c-4 77 -23 112 -76 143 -42 24 -127 31
-174 13z m122 -71 c33 -17 50 -43 50 -74 0 -20 -5 -21 -115 -21 l-115 0 11 27
c14 38 29 54 64 69 40 18 70 17 105 -1z"/>
<path d="M4325 3396 c-5 -3 -31 -7 -57 -11 l-48 -6 0 -45 c0 -24 1 -44 3 -44
1 0 24 7 51 15 103 31 184 15 200 -41 6 -20 2 -21 -74 -28 -152 -13 -210 -55
-210 -155 0 -65 20 -100 70 -126 44 -23 119 -19 173 9 44 22 47 22 47 5 0 -16
8 -19 41 -19 l41 0 -4 178 c-3 199 -10 221 -74 248 -34 14 -140 27 -159 20z
m155 -279 c0 -52 -1 -54 -39 -75 -51 -29 -123 -30 -151 -2 -40 40 -14 102 47
116 16 3 33 7 38 9 6 2 31 4 58 4 l47 1 0 -53z"/>
<path d="M5640 3395 c-8 -2 -32 -6 -52 -10 -37 -6 -38 -7 -38 -49 l0 -44 47
14 c25 8 70 14 100 14 44 0 58 -5 78 -25 42 -41 33 -51 -47 -59 -101 -9 -144
-22 -180 -55 -26 -23 -32 -37 -36 -83 -5 -66 14 -110 61 -138 45 -28 121 -26
180 4 44 22 47 22 47 5 0 -15 8 -19 40 -19 l40 0 0 168 c0 186 -9 221 -65 254
-28 16 -142 31 -175 23z m160 -278 c0 -52 -1 -54 -39 -75 -104 -59 -216 4
-148 83 25 29 67 42 140 44 l47 1 0 -53z"/>
<path d="M3460 3170 l0 -220 40 0 40 0 0 148 c0 129 2 151 18 164 34 30 65 40
123 39 l59 -1 0 39 c0 35 -3 40 -29 46 -36 8 -106 -10 -143 -37 l-28 -19 0 30
c0 29 -2 31 -40 31 l-40 0 0 -220z"/>
<path d="M4930 3170 l0 -220 40 0 40 0 0 220 0 220 -40 0 -40 0 0 -220z"/>
<path d="M5073 3358 c7 -18 47 -117 88 -220 l74 -188 41 0 41 0 87 213 c47
116 86 215 86 220 0 4 -19 7 -42 7 l-43 0 -44 -118 c-24 -64 -53 -137 -64
-162 l-19 -45 -63 160 -62 160 -47 3 -47 3 14 -33z"/>
<path d="M2950 2460 l0 -290 190 0 190 0 0 40 0 40 -150 0 -150 0 0 100 0 100
150 0 150 0 0 40 0 40 -150 0 -150 0 0 70 0 70 150 0 150 0 0 40 0 40 -190 0
-190 0 0 -290z"/>
<path d="M4265 2602 c-85 -40 -120 -112 -113 -233 5 -92 28 -142 81 -177 35
-23 51 -27 118 -27 71 0 80 2 115 31 50 40 75 92 81 167 9 104 -27 191 -95
230 -48 28 -137 32 -187 9z m147 -76 c47 -29 66 -154 35 -229 -31 -73 -129
-88 -181 -27 -42 50 -47 171 -10 228 31 47 105 60 156 28z"/>
<path d="M4767 2606 c-20 -7 -44 -19 -52 -26 -13 -10 -15 -9 -15 9 0 18 -6 21
-40 21 l-40 0 0 -300 0 -300 40 0 40 0 0 89 0 89 38 -14 c52 -18 100 -17 147
5 83 38 118 105 117 224 0 88 -27 156 -74 190 -34 25 -112 31 -161 13z m102
-82 c72 -51 65 -231 -10 -269 -34 -18 -98 -19 -134 -3 l-26 11 3 116 3 116 45
23 c52 26 87 28 119 6z"/>
<path d="M5180 2615 c-8 -2 -32 -6 -52 -10 -37 -6 -38 -7 -38 -49 l0 -44 47
14 c25 8 70 14 100 14 44 0 58 -5 78 -25 43 -42 34 -51 -57 -59 -88 -7 -151
-30 -182 -65 -27 -30 -33 -118 -12 -160 38 -72 139 -93 229 -47 44 22 47 22
47 5 0 -15 8 -19 40 -19 l40 0 0 173 c0 192 -8 220 -70 252 -29 15 -138 28
-170 20z m160 -278 c0 -52 -1 -54 -39 -75 -43 -25 -117 -29 -144 -9 -29 22
-31 61 -5 91 26 30 67 43 141 45 l47 1 0 -53z"/>
<path d="M3400 2440 c0 -193 8 -227 62 -260 47 -28 121 -27 176 5 40 23 42 23
42 4 0 -16 7 -19 40 -19 l40 0 0 220 0 220 -40 0 -40 0 0 -164 0 -164 -43 -21
c-57 -27 -108 -27 -133 0 -17 19 -19 40 -22 185 l-3 164 -40 0 -39 0 0 -170z"/>
<path d="M3860 2390 l0 -220 40 0 40 0 0 153 0 153 42 24 c32 18 57 24 95 23
l53 -1 0 38 c0 30 -4 40 -21 45 -29 9 -87 -3 -127 -26 -42 -24 -42 -24 -42 6
0 23 -4 25 -40 25 l-40 0 0 -220z"/>
</g>
</svg>
